# xmcd
#
# Track frame offsets: 
#        150
#        21579
#        52569
#        74544
#        105067
#        130575
#        164825
#        189402
#        215232
#        242030
#        275280
#
# Disc length: 4055 seconds
#
# Revision: 0
# Processed by: cddbd v1.5.2PL0 Copyright (c) Steve Scherf et al.
# Submitted via: ExactAudioCopy v1.3
#
DISCID=990fd50b
DTITLE=Abi Wallenstein - Live and Pure
DYEAR=2020
DGENRE=Blues
TTITLE0=Everyday I Have The Blues - Decoration Day
TTITLE1=I Can't Be Satisfied
TTITLE2=Don't Start Crying Now
TTITLE3=Good Morning Blues
TTITLE4=Sweet Home Chicago
TTITLE5=Alabama Blues
TTITLE6=I Just Wanna Make Love To You
TTITLE7=As Long As I Can See The Light
TTITLE8=Silver City
TTITLE9=Same Old Blues
TTITLE10=Shake Your Boogie
EXTD=
EXTT0=
EXTT1=
EXTT2=
EXTT3=
EXTT4=
EXTT5=
EXTT6=
EXTT7=
EXTT8=
EXTT9=
EXTT10=
PLAYORDER=
